/* XPM */
static char *_d5baf52e4464a64ebe10f04b2410c49IpcmBfNcBWFKu3rK[] = {
/* columns rows colors chars-per-pixel */
"64 64 2 1 ",
"  c white",
". c black",
/* pixels */
"                                                                ",
"                                                                ",
"                                                                ",
"                                                                ",
"                          ......                                ",
"                         .......                                ",
"                        ........                                ",
"                       .........                                ",
"                      ..........                                ",
"                     ...........                                ",
"                    ............                                ",
"                   .............                                ",
"                  ..............                                ",
"                 ...............                                ",
"                ........  ......                                ",
"               ........   ......                                ",
"              ........    ......                                ",
"             ........     ......                                ",
"            ........      ......                                ",
"           ........       ......                                ",
"           .......        ......                                ",
"                          ......                                ",
"                          ......                                ",
"                          ......                                ",
"                          ......                                ",
"                          ......                                ",
"                          ......                                ",
"                          ......                                ",
"                          ......                                ",
"                          ......                                ",
"                          ......                                ",
"                          ......                                ",
"                          ......                                ",
"                          ......                                ",
"                          ......                                ",
"                          ......                                ",
"                          ......                                ",
"                          ......                                ",
"                          ......                                ",
"                          ......                                ",
"                          ......                                ",
"                          ......                                ",
"                          ......                                ",
"                          ......                                ",
"                          ......                                ",
"                          ......                                ",
"                                                                ",
"                                                                ",
"                                                                ",
"                                                                ",
"                                                                ",
"                                                                ",
"                                                                ",
"                                                                ",
"                                                                ",
"                                                                ",
"                                                                ",
"                                                                ",
"                                                                ",
"                                                                ",
"                                                                ",
"                                                                ",
"                                                                ",
"                                                                "
};
